<?xml version="1.0" encoding="UTF-8"?>
<svg id="Capa_1" xmlns="http://www.w3.org/2000/svg" version="1.1" viewBox="0 0 1998.8 474.3">
  <!-- Generator: Adobe Illustrator 29.1.0, SVG Export Plug-In . SVG Version: 2.1.0 Build 142)  -->
  <defs>
    <style>
      .st0 {
        fill: #8a989f;
      }
    </style>
  </defs>
  <path class="st0" d="M641,291.7l50.2-140c.9-2.6,3.2-4.6,5.9-5.2h0c4.4-.9,8.7,1.9,9.5,6.3l31.6,161.9c1.8,16.6-4.8,17.9-18.9,11.9l-22.4-132.3-47.4,130.8c-1.2,3.3-3.7,4.4-6.6,4.7-5.3.6-10.2-2.9-11.9-8-13.1-40.4-45.7-135.7-45.7-135.7l-21.2,140.5c-8.3,3.8-13.5,3.2-21.8.2l34.4-179.6c2.8-4.6,13.2-4.1,14.8,2l49.5,142.3v.2Z"/>
  <path class="st0" d="M1940,292.2v-144.7l19.4.2v174.2c0,.9,0,1.8-.3,2.7-1.8,6.6-10,8.2-15.1,2.6l-114.5-141v139.5c0,6.5-15,3.3-19.3,1.4v-178.2c0-7.2,10.4-7.9,14-2.9l115.9,146.2h0Z"/>
  <path class="st0" d="M856.4,145.4c73.6-10.2,128.9,60,101.6,129.2-24.9,63.1-116.3,76-158.9,23.5-44.4-54.8-13-142.9,57.3-152.7h0ZM922.7,293.2c5.9-5.8,15.7-21.7,18.7-29.7,25.8-68.6-57.4-129.8-113.3-85.6-57.6,45.5-29,131.1,41.4,135.5,14.9.9,42.3-9.7,53.2-20.2h0Z"/>
  <path class="st0" d="M1649.2,145.4c77.6-11.1,135,67.5,98.6,137.3-35.5,68-141.8,63.7-169.1-10.1-19.8-53.5,11.8-118.8,70.5-127.2h0ZM1652,164.7c-50.2,7.2-75.7,67.5-51.3,110.7,30.1,53.2,110.9,48,133.5-9.2,7-17.7,7.8-31.1,2.2-49.1-11.7-37.3-45.5-58-84.4-52.4h0Z"/>
  <path class="st0" d="M1301.6,310.5h83.2l-.2,19.4c-2.6.4-80.2.1-110.9,0-5.4,0-8.7-5.9-5.9-10.5l92.1-152.5h-81.5c-5.7,0-5.7-19.3,0-19.3h107.7c7.8,0-.9,15.7-.9,15.7,0,0-73.9,124.6-85.8,143.6s.2,3.7,2.1,3.7h.1Z"/>
  <path class="st0" d="M1539.1,147.5c2.3,0,3.9,2.5,2.8,4.6-4.2,8.3-7.4,13.9-7.4,13.9l-83.5,134.7s-6.2,10.2-2.7,9.8h85.6l-.3,18.1-108.9,1.3c-8.6-1.1-8.4-9.3-4.7-15.9l85.7-138s4.1-5.1,3.3-9.1h-78.7c-5,0-4.5-15.1-4.1-19.3h112.9,0Z"/>
  <path class="st0" d="M1077.1,290.9l63.2-140.7c3.5-4.7,19.7-3.9,20.8,1.5l-78.7,175.4c-3.7,5.6-14.3,3.4-15.8-3.6,0,0-75.8-165.5-76.5-169.4-1.4-8.3,16-8.9,20.5-3.9,17.1,35.9,52.6,118.8,61.9,140.7.9,2,3.7,2.1,4.7,0h0Z"/>
  <path class="st0" d="M364.9,442.6c-6.3,6.4-24.7,1.9-32.7-.8-16.6-5.7-29.3-16.6-37.7-30.6s-12.1-33.9-8.7-51.6l60.9-320.5c4.7-18.9,34.2-8,47-1.3,11.8,6.1,20.3,15.2,26.3,25.9,9.2,16.3,11.8,35.4,8.3,53.8-16.8,87.7-32.1,175.7-49.4,263.3-1.8,9.3-10.8,58.5-14.1,61.9h.1ZM85.8,149.5l-34.7,182.2c-5.5,22,27,7.3,42.1,9.2,4.3.5,14.7,4.1,18.8,6,10,4.7,28.2,20.4,31.9,5.8L204.2,46.1c1-4.9-.4-10-3.9-13.4s-11.6-4.3-20.6-3.3c-78.9,9.3-81.3,57.7-93.8,120.1h0ZM223.1,61.8l-41.4,212.2c-1.8,9.4-1.1,19.3,2.5,28.2,13,31.6,54.8,40.3,78.3,15.9,10-10.8,10.6-15.4,12.5-24.5l35.9-188.1c2.4-14.5,7.8-25.2,4.4-41.6-4.9-23.3-32.7-38.4-55.5-34.5-17.1,3-31.9,15.8-36.6,32.4h0ZM45.4,422c18.3,30.6,58.6,31.5,79.8,3.2,22.5-30.1-3.4-73.2-39.6-72.5-33.5.6-57.9,39.8-40.2,69.3Z"/>
  <path class="st0" d="M1199.7,327.1v-175.4c0-5.8,22.1-5.8,22.1,0v171.3c0,7-16.4,8-22.1,4.1Z"/>
</svg>