<?xml version="1.0" encoding="UTF-8"?>
<svg id="Capa_1" xmlns="http://www.w3.org/2000/svg" version="1.1" viewBox="0 0 1280 391.3">
  <!-- Generator: Adobe Illustrator 29.1.0, SVG Export Plug-In . SVG Version: 2.1.0 Build 142)  -->
  <defs>
    <style>
      .st0 {
        fill: #25292c;
      }

      .st1 {
        fill: #8998a1;
      }

      .st2 {
        fill: #464c52;
      }
    </style>
  </defs>
  <path class="st2" d="M239.3,332.8h27.4l.8.8v48.8l-.8.8h-90.8l-7.6-32.5c-7.2,8.3-14.5,15.9-23.7,22.1-30.7,21.1-71.9,24.5-105.5,8.1C1,362.4-4.8,327.7,3.1,288.8c6.9-34.5,27.3-41,57.6-51.9,31.6-11.4,64.5-19.1,97.4-26.3-.3-8.8.3-17.7,0-26.5-.7-16.4-3-30.3-21.5-33.7-11.8-2.1-43.5-1.8-54.2,3-10.7,4.8-7.4,16.7-7.8,24.4l-63.9,5.5c-1.5-14.9,0-30.5,3.5-45s2.2-11.2,8.1-16.3c17.5-15,51.7-24,74.3-27.1,54.4-7.3,133.5,3.2,140.7,70.7.7,46.9-1.1,94.1.6,140.9.3,8.8.2,17.6,1.6,26.3h-.1ZM157.9,259.7c-19.1,4.3-38.2,9.6-56.7,16.3-4.4,1.6-16.3,5.4-19.5,7.7s-4.5,12-4.7,15.3c-.8,11.4.2,28.6,12.1,34,21.9,9.9,55.1-15.8,68.7-31.8v-41.5h0Z"/>
  <g>
    <path class="st2" d="M473,151.3h-36.6l-.8-.8v-49.3l.8-.8h115.2v200.8l2.2,31.7h24.7l.8.8v49.6h-90l-7.6-32.5c-.8-.2-.9.2-1.3.5-3.3,2.3-7.3,7.7-10.5,10.6-31.7,28.2-70.1,34.1-111.2,26.5-51.5-9.4-71.2-41.9-73.2-92.1v-145h-36.6l-.8-.8v-49.3l.8-.8h114.9l.9,1.9v188.6c1.3,12.5,3.3,27.5,16.8,32.5,11.2,4.1,34,2,45.5-1.1s18.6-11.1,25.2-16.5c7.5-6.2,14.6-12.9,20.9-20.3v-134.1h0Z"/>
    <path class="st1" d="M1270.1,111.8v66.7h-58.5v-22.5c-5-1.9-10.9-3.3-16.3-4.3-18.6-3.5-52.5-6.5-65.9,10.1-15.4,18.9,13.7,32.9,27.4,38.7,35.9,15.4,79.6,24.5,106.3,55.3,26.4,30.5,20.5,76.7-8.1,103.5-47,43.9-135.5,34.6-193.1,20.7-4.9-1.2-9.7-2.5-14.5-3.7v-73.1h58.5v26.3c4.8,2.1,10.9,3.1,16.1,3.9,20.5,3.2,63,6.8,75.1-14.6,12.7-22.7-20.1-35.3-35.8-41.4-42.9-16.9-101.5-30.9-112.8-83.5-12.7-58.9,31.5-90.2,83.7-98.1,46.9-7.1,93.5,1.4,137.9,16.1h0Z"/>
    <polygon class="st1" points="999.5 332.8 1036.9 333.4 1036.9 383.2 883.5 383.2 883.5 332.8 920.4 332.8 920.4 151.3 883.5 151.3 883.5 100.4 998.7 100.4 999.5 101.2 999.5 332.8"/>
    <path class="st2" d="M732.2,296c-1.2-.1-1.1.7-1.5,1.4-8.5,13.2-17.8,26-26.7,38.9v46.1l-.8.8h-108.5l-.8-.8v-48.8l.8-.8h32.5l64.3-93.2c1.3,0,1.4.8,1.9,1.5,11.6,15.2,23.7,31.6,34.6,47.3.9,1.2,3.4,4.4,3.8,5.4s.1,1.5.3,2.1h0Z"/>
    <polygon class="st1" points="773.4 239.6 837.6 332.8 870.2 332.8 871 333.6 871 382.4 870.2 383.2 761.7 383.2 760.9 382.4 760.9 336.4 732.7 296 773.4 239.6"/>
    <path class="st2" d="M691.5,238.6l-55.3-87.3h-33.6v-50.9h109v43.6l20.6,31.1c-.1.2.1.9,0,1.1-11.7,18.3-23.6,36.8-35.7,55.1-2,3-2.6,4.9-5,7.2h0Z"/>
    <path class="st1" d="M732.2,175.2c6.7-10.4,14.5-20.6,21.1-31.1v-43.6h109v50.9h-33.6l-55.3,87.3-4-5.5-34-53.3c-.6-1-2-3.5-3.1-3.6.1-.2-.1-.9,0-1.1h0Z"/>
    <path class="st1" d="M954.4.3c37.8-3.9,63.5,34.8,44.1,67.9-16.3,28-55.9,29.9-75.7,4.5-22.2-28.5-3.7-68.8,31.5-72.4Z"/>
    <path class="st0" d="M732.2,176.2c1.2,0,2.5,2.7,3.1,3.6l34,53.3,4,5.5v1.1l-40.7,56.3-.3,1.1c-.5,0-.2-.7-.3-1.1-.1-.7.1-1.2-.3-2.1s-2.9-4.2-3.8-5.4c-10.9-15.7-23-32.1-34.6-47.3-.5-.7-.7-1.6-1.9-1.5,0-.3,0-1,0-1.1,2.3-2.3,3-4.2,5-7.2,12.1-18.3,23.9-36.8,35.7-55.1h0Z"/>
  </g>
</svg>