<?xml version="1.0" encoding="UTF-8"?>
<svg id="Capa_1" xmlns="http://www.w3.org/2000/svg" version="1.1" viewBox="0 0 3249.1 1542.7">
  <!-- Generator: Adobe Illustrator 29.1.0, SVG Export Plug-In . SVG Version: 2.1.0 Build 142)  -->
  <defs>
    <style>
      .st0 {
        fill: #fafdfc;
      }

      .st1 {
        fill: #8a989f;
      }
    </style>
  </defs>
  <path class="st0" d="M3486.9,2290.5v4c-6.8,1.8-14.6,5.6-20,10h-8l28-14Z"/>
  <path class="st1" d="M1063,864.5c-10.5-6.7-36.2-23.7-43.4-31.6-17.5-19.1-22.1-47.3-13-71.5,2.5-6.5,38.2-51.4,43.3-54.8,49.2-33.6,111.6,23.7,161.3,36.5,43.8,11.3,93.5,17.5,136.9,1.4,50.8-18.8,80.4-71.4,51.8-122.3-29.2-51.9-156.2-83.3-211.4-108.3-122-55.1-210.6-131.1-194-278,25.9-229.1,342.7-276.6,505.8-169.4,63.8,42,31.5,103.1-21.1,135.8-48.9,30.3-84.2-13.5-133.2-25.1-57.8-13.6-150.1-9.8-173.8,57.1-39.1,110.6,162.2,152.3,232.6,184.5,138.4,63.3,221.5,170,163.7,328.1-65.9,180.5-286,184.9-443.5,140.5-15.8-4.4-50.4-15.4-62-22.8ZM1683.3,169.1c58.3,41.3,169.4-24.7,203.6,62.8l3.5,597c7.5,88.2,158.1,91.7,168.4,6.2,12.2-184.2-16.6-390.2-.3-571.8,12.9-143,175.4-32.4,227.1-112,33-50.8,4.6-111.2-54.9-117.9-159.3-17.9-350.8,13.5-513.5-.1-10.1,1.3-32.2,9.9-39.6,16.2-36.3,30.9-32.9,92.3,5.7,119.6ZM.2,108.6l-.2,707.4c4,45,29.2,75.6,75.1,79.9,138.1,12.9,296-10.1,436.2,0,93.3-11.4,97.8-151.3,5-160.2-83.1-8-184.7,10.5-266.2-.2-49.6-6.5-76.1-40.7-80.5-89l-.9-556.1c-12.9-45.7-62.3-64.9-106.7-55.7C28.5,41.5,3.6,75.7.2,108.6ZM2940.2,212.7c28.4-5.7,1-8.6,0-9.7-1.8-2-14.6-46.2-14.7-51-1.7-51.6,43.5-84.8,92.2-82.2-189.6-121.3-434.3-80.2-578.8,89.5-130.3,153.1-131.3,372.2-25.7,539.2,7.6,12.1,41.3,59.8,49.9,66.3,45.4,34.5,122.5,11.6,132-47.2,9.2-57-26.7-71.6-51.2-111.1-128.4-206.7,37.7-468.7,281.1-441,17.1,2,107.2,27.8,115.2,37.4.9,1.1-.7,6.9,0,9.7ZM2658.2,884.5c338.8,103.8,653.2-185.8,570.2-531.4-17.7-73.6-116.6-295.8-218-208.3-72.5,62.5,11.3,122.2,37.3,176,102.7,212-54.2,440.9-289,419.8-42.7-3.8-77.7-25.9-118.7-29,16.3,37.3,16.3,82.6-19.2,109.2-11,8.2-51.1,17.2-32.8,34.9,7.1,6.8,57.6,25,70.3,28.9ZM683.1,108.6l-.2,707.3c8.9,101.1,147.5,108.9,164.9,9.5l.2-717c-2.5-50.8-49.8-81.6-98.3-73.7-32.8,5.3-62.9,41.3-66.5,73.9ZM1993.1,1012c-17.4-1-31.8-8.3-48.3-9.8-163.7-15.2-258.3,168.1-104.1,259.1,2.3,9.5-34.3,18.4-20.6,49.5,3.1,7.1,10.6,12.5,15.7,18.2-34.4,18.9-74.6,32.6-81.9,77.8-22.6,139.3,179.1,154.3,270.8,120.7,107.4-39.3,104.7-158.2-3.4-195-18.2-6.2-104.2-16.4-107.7-20.6-5.8-7,2-20.3,10.8-25.1,19.7-10.8,58.6-11.4,86.1-25.3,66.3-33.5,89.8-107.9,67.6-177,10.4-.7,29.3,4.2,33.2-8l.7-64.7c-39.3-1.8-79.6,2.5-118.9.2ZM1939.7,1205.3c-103.9,16.5-109-124.4-17.8-129.3,78.9-4.2,96.3,116.9,17.8,129.3ZM1850.9,1411.9c21.3-33.1,171.9-36.7,158.5,27.5-9.2,44.1-125.7,39.2-152.8,16.6-12-10-14.4-30.6-5.7-44.1ZM1702.7,1229.8c16.1-28.9,6.7-75.7-4.9-106.5-61.8-164.8-327.9-159.7-377.5,9.9-60.8,207.9,193.3,319.5,341,195.4l-51.6-54.7c-28.5,10.1-55,27.3-86.4,28.6-47.1,2-98.6-24.5-108.8-72.7h288.2ZM1409.6,1157.2c16.7-70.6,103.2-100.3,162.2-58.1,16.1,11.5,39.9,36.6,36.4,58.1h-198.6ZM2870.5,1104.4c-89.7,174.7,104.6,336,273.3,253.9,113.6-55.2,142.3-211.4,51.4-301.2-90.2-89.1-265.6-67.8-324.7,47.2ZM3026.1,1296.5c-109.2-18.6-104.8-192.3-4.8-210.8,174.6-32.4,174.7,239.7,4.8,210.8ZM2145.8,1011.9v230.1c0,3.7,6.4,34.4,8.1,40.3,19.3,67,80.9,102.2,149.2,97.7s59.9-20.6,89.7-29.1v19.4h92v-358.4h-92v254.3c0,19-62.9,36.4-79.5,35.9-11.2-.3-37.4-9.5-46.3-16.7-5.4-4.3-24.4-35.3-24.4-38.6v-234.9h-96.9ZM1116.5,1079.6c43.1-4.8,64.7,15.2,96.3,38.5,3.2-.6,43.5-40.5,47-45.5,9.6-14-14.4-29.4-25.8-37.6-50.4-36.2-120.4-42.9-177.8-20.6-78.3,30.4-105.7,118.8-36.3,176.5,12.9,10.8,55.3,33.3,69,38.5,23.5,8.8,81.8,6.9,83.9,41.6,3.2,53.5-114,35.7-126.4-10l-6.5-1.6c-25.1,12.1-47.4,34.6-49.8,62.6,67.6,112.9,336.6,49.7,268.5-93.8-35.4-74.6-147.8-66.2-176.9-101.5-21-25.4,11-44.5,34.7-47.2ZM2654.4,1145.1c0-3.5,11.1-24.4,14.5-29.1,31.3-43.4,79.4-30.6,109,7.2l50.3-74.3c-45.4-52-119.5-66.6-166.7-8-12.7,5.3-5.6-24.2-7.2-29h-92v358.4h92v-225.2Z"/>
</svg>